<?xml version="1.0" standalone="no"?>
<!DOCTYPE svg PUBLIC "-//W3C//DTD SVG 20010904//EN"
 "http://www.w3.org/TR/2001/REC-SVG-20010904/DTD/svg10.dtd">
<svg version="1.0" xmlns="http://www.w3.org/2000/svg"
 width="791.000000pt" height="322.000000pt" viewBox="0 0 791.000000 322.000000"
 preserveAspectRatio="xMidYMid meet">

<g transform="translate(0.000000,322.000000) scale(0.100000,-0.100000)"
fill="#000000" stroke="none">
<path d="M3595 3018 c-11 -7 -33 -24 -50 -40 -16 -15 -34 -28 -39 -28 -4 0
-30 16 -57 36 -27 20 -49 32 -49 28 0 -4 8 -32 17 -62 l17 -54 -43 -37 -43
-37 88 -11 c49 -5 123 -7 164 -4 l75 6 -53 38 c-28 21 -52 40 -52 42 0 3 9 27
20 55 11 27 17 50 14 50 -4 0 -1 7 6 15 15 18 12 18 -15 3z"/>
<path d="M942 2684 c-274 -40 -502 -144 -681 -312 -78 -73 -81 -101 -20 -167
67 -73 73 -72 189 25 136 114 286 186 460 222 138 29 359 22 483 -16 150 -45
270 -114 416 -239 30 -26 63 -47 73 -47 20 0 108 80 108 99 0 19 -34 -4 -69
-46 l-30 -36 -76 59 c-174 135 -287 196 -435 235 -73 19 -108 22 -252 21 -93
-1 -168 2 -168 6 0 5 9 17 20 27 15 13 20 33 22 89 l3 71 170 -1 c166 -2 169
-2 105 12 -81 16 -197 16 -318 -2z"/>
<path d="M2934 2690 c-12 -5 -25 -13 -29 -19 -3 -6 -41 -37 -83 -68 -42 -31
-140 -109 -217 -173 -77 -64 -194 -158 -260 -208 -66 -50 -147 -117 -180 -147
-56 -53 -58 -56 -30 -51 80 15 257 18 329 6 41 -8 73 -16 71 -20 -2 -3 28 -26
66 -50 38 -25 69 -49 69 -54 0 -4 -10 -25 -21 -46 -24 -42 -65 -58 -101 -39
-22 12 -21 12 -37 -18 -8 -16 -32 -29 -81 -43 -39 -11 -70 -25 -70 -31 0 -5
13 -3 30 6 37 19 54 19 71 -2 8 -9 29 -22 47 -30 l33 -14 -22 -39 c-13 -22
-25 -40 -29 -40 -3 0 -22 11 -43 25 -31 22 -38 24 -43 10 -3 -8 -11 -15 -18
-15 -11 0 -86 -70 -86 -80 0 -3 15 -6 33 -7 62 -4 79 -12 75 -36 -2 -18 -11
-23 -40 -25 -24 -2 -38 -8 -38 -17 0 -7 -3 -21 -6 -30 -6 -15 -4 -15 30 -1 39
16 39 17 50 -36 6 -26 4 -28 -31 -34 -30 -5 -46 -17 -76 -54 -22 -27 -51 -51
-65 -55 -15 -4 -57 -22 -95 -41 -81 -40 -176 -64 -259 -64 -48 0 -58 -3 -50
-13 9 -10 -18 -13 -143 -12 -84 0 -157 3 -160 7 -4 4 2 23 13 43 l21 35 -24 0
c-13 0 -26 -4 -30 -9 -3 -6 -52 -46 -109 -90 -97 -75 -146 -122 -146 -142 0
-5 14 -9 30 -9 17 0 30 4 30 8 0 16 94 86 132 99 35 12 50 11 119 -3 67 -15
86 -15 126 -5 27 7 75 13 108 15 84 3 287 58 313 84 12 12 40 26 64 32 84 22
105 31 129 56 12 13 48 32 79 41 38 11 66 27 91 53 49 51 88 64 125 39 16 -10
43 -19 59 -19 17 0 54 -11 83 -25 59 -27 105 -31 139 -12 21 12 105 81 297
246 93 79 98 86 75 92 -23 7 -23 7 5 8 15 1 47 15 70 33 69 55 379 324 409
355 l28 30 -40 18 c-33 15 -59 41 -49 50 2 2 30 -3 63 -10 40 -8 69 -9 87 -2
16 5 78 56 140 114 61 57 131 118 155 136 56 40 46 52 -65 75 -81 16 -81 16
-105 -6 -34 -32 -54 -29 -32 4 9 14 15 27 13 28 -2 2 -93 22 -203 45 -110 23
-321 69 -469 102 -282 62 -288 63 -322 49z m-344 -695 c17 -9 30 -18 30 -21 0
-4 -59 23 -69 32 -10 9 13 3 39 -11z m115 -86 c11 -12 -1 -5 -27 16 -27 22
-48 41 -48 43 0 7 56 -36 75 -59z m75 -65 c0 -2 -9 0 -20 6 -11 6 -20 13 -20
16 0 2 9 0 20 -6 11 -6 20 -13 20 -16z m80 -50 c0 -2 -9 0 -20 6 -11 6 -20 13
-20 16 0 2 9 0 20 -6 11 -6 20 -13 20 -16z m51 -22 c-13 -2 -27 0 -32 5 -6 6
3 7 23 4 28 -4 29 -6 9 -9z m63 -8 c5 -14 4 -15 -9 -4 -17 14 -19 20 -6 20 5
0 12 -7 15 -16z m46 -24 c8 -5 11 -10 5 -10 -5 0 -17 5 -25 10 -8 5 -10 10 -5
10 6 0 17 -5 25 -10z m77 -46 c2 -13 1 -15 -4 -4 -3 8 -11 19 -17 23 -7 6 -6
7 4 4 8 -2 16 -12 17 -23z m-18 -37 c-9 -7 -18 -19 -22 -27 -4 -12 -6 -12 -6
2 -1 9 7 22 17 27 24 14 30 13 11 -2z m72 -30 c-10 -9 -11 -8 -5 6 3 10 9 15
12 12 3 -3 0 -11 -7 -18z"/>
<path d="M4781 2553 l20 -58 -23 -20 c-13 -11 -37 -30 -53 -42 l-30 -22 66 -1
65 0 20 -62 20 -62 18 62 19 62 66 0 66 1 -30 22 c-16 12 -40 31 -53 42 l-23
20 20 58 c11 31 18 57 15 57 -3 0 -26 -16 -51 -35 -48 -37 -48 -37 -104 7 -20
15 -39 28 -42 28 -3 0 3 -26 14 -57z"/>
<path d="M1003 2318 c-186 -14 -388 -108 -504 -234 -37 -40 -43 -67 -24 -108
17 -36 79 -86 107 -86 8 0 46 25 84 55 141 112 257 155 420 155 175 0 293 -43
419 -150 40 -34 80 -60 92 -60 24 0 113 78 113 98 0 19 -32 2 -76 -40 l-41
-39 -65 55 c-114 97 -213 131 -437 150 -119 10 -133 13 -113 24 13 7 53 16 90
19 l67 6 3 53 c2 42 -1 56 -13 60 -8 3 -15 10 -15 14 0 18 72 18 160 0 52 -10
96 -17 98 -15 2 2 -22 11 -54 21 -77 22 -197 31 -311 22z"/>
<path d="M6340 1895 l0 -155 50 0 50 0 0 155 0 155 -50 0 -50 0 0 -155z"/>
<path d="M6707 1838 l-135 -143 31 -32 c17 -18 34 -33 38 -33 3 0 66 63 139
140 l132 140 -26 35 c-15 19 -31 35 -35 35 -5 0 -70 -64 -144 -142z"/>
<path d="M950 1928 c-49 -9 -137 -57 -185 -103 -28 -26 -35 -40 -35 -70 0 -31
8 -45 44 -81 24 -24 53 -44 64 -44 11 0 40 15 65 34 69 52 86 59 167 66 l75 7
-68 1 c-75 2 -88 19 -29 37 30 9 32 12 32 60 0 27 3 60 6 71 5 20 1 22 -45 25
-27 2 -68 1 -91 -3z"/>
<path d="M4770 1751 c-134 -44 -209 -144 -218 -291 -7 -133 53 -242 165 -297
139 -68 313 -9 384 128 31 61 27 69 -33 69 -48 0 -53 -3 -86 -41 -59 -69 -145
-89 -220 -50 -68 35 -102 93 -102 176 0 116 73 195 180 195 63 0 97 -17 143
-70 34 -40 36 -41 91 -38 l56 3 -24 51 c-30 64 -86 120 -144 147 -50 21 -152
31 -192 18z"/>
<path d="M5199 1633 c0 -71 -3 -212 -6 -315 l-5 -188 56 0 56 0 0 315 0 315
-50 0 -50 0 -1 -127z"/>
<path d="M1400 1695 c-43 -44 -68 -51 -111 -30 l-34 16 30 -25 c17 -14 38 -26
47 -26 19 0 83 53 99 81 14 27 7 24 -31 -16z"/>
<path d="M1949 1675 c-87 -15 -152 -44 -175 -80 -8 -13 -21 -49 -28 -79 -13
-52 -12 -56 5 -56 36 0 1 -52 -99 -147 -95 -90 -101 -116 -12 -48 110 84 211
155 220 155 6 0 19 -14 29 -31 15 -24 20 -27 25 -14 3 9 6 25 6 36 0 21 11 24
27 8 9 -9 20 -9 45 1 50 21 213 150 210 167 -2 7 -17 34 -34 58 -31 44 -33 45
-87 44 -31 -1 -90 -7 -132 -14z"/>
<path d="M5515 1626 c-22 -7 -50 -18 -63 -25 -30 -16 -62 -69 -62 -103 0 -27
2 -28 54 -28 46 0 56 3 61 20 10 33 50 53 91 47 43 -7 64 -23 64 -48 0 -30
-26 -46 -97 -59 -149 -27 -190 -67 -181 -178 4 -43 11 -59 35 -84 49 -48 117
-49 226 -3 13 5 17 2 17 -14 0 -19 6 -21 54 -21 52 0 54 1 60 31 3 17 3 112
-1 212 l-6 182 -31 31 c-21 21 -48 35 -84 43 -65 14 -86 13 -137 -3z m143
-301 c-3 -40 -11 -62 -28 -80 -52 -55 -140 -37 -140 29 0 19 8 40 19 50 14 13
104 46 150 55 2 1 1 -24 -1 -54z"/>
<path d="M6045 1616 c-16 -7 -39 -23 -49 -35 -25 -28 -36 -27 -36 4 0 23 -3
25 -50 25 l-50 0 0 -240 0 -240 55 0 55 0 -3 133 c-2 147 8 194 50 227 16 12
41 20 64 20 l39 0 0 60 c0 56 -2 60 -22 60 -13 -1 -36 -7 -53 -14z"/>
<path d="M6272 1609 c-87 -44 -137 -141 -130 -254 8 -125 98 -215 222 -223
100 -7 175 37 223 132 31 60 36 158 11 217 -22 52 -73 105 -122 128 -58 28
-146 28 -204 0z m163 -105 c85 -40 98 -166 24 -228 -89 -75 -211 -12 -211 110
0 55 23 91 73 116 42 22 71 23 114 2z"/>
<path d="M1026 1560 c-68 -21 -122 -77 -149 -156 -19 -57 -14 -95 23 -161 26
-48 42 -64 90 -90 l58 -32 65 14 c72 15 114 34 138 61 31 36 62 109 62 149 1
98 -79 205 -154 207 -16 1 -32 5 -35 10 -6 10 -60 9 -98 -2z m81 -47 c53 -25
69 -95 39 -167 -16 -39 -82 -71 -126 -61 -44 10 -82 57 -87 109 -8 64 3 94 40
116 39 24 88 25 134 3z m-40 -279 c-3 -3 -12 -4 -19 -1 -8 3 -5 6 6 6 11 1 17
-2 13 -5z"/>
<path d="M2268 1483 c6 -2 18 -2 25 0 6 3 1 5 -13 5 -14 0 -19 -2 -12 -5z"/>
<path d="M6690 1440 l0 -50 150 0 c83 0 150 3 151 8 0 4 2 26 5 50 l6 42 -156
0 -156 0 0 -50z"/>
<path d="M4266 815 c-155 -63 -281 -196 -326 -344 -31 -99 -28 -252 8 -356
l27 -80 53 -3 53 -3 -24 48 c-102 201 -64 427 96 568 29 25 86 63 126 83 73
36 78 37 186 37 111 0 112 0 198 -43 110 -54 173 -116 224 -219 38 -77 38 -77
38 -203 0 -125 0 -127 -36 -198 l-35 -72 45 0 c46 0 46 0 68 53 34 81 43 125
43 217 0 190 -90 359 -242 458 -105 69 -156 82 -310 82 -118 0 -140 -3 -192
-25z"/>
<path d="M2870 574 c-211 -57 -379 -272 -380 -486 l0 -58 39 0 38 0 6 82 c12
155 99 281 244 354 75 38 78 39 187 39 104 0 115 -2 179 -32 89 -42 172 -126
217 -216 27 -55 34 -84 38 -148 l5 -79 38 0 39 0 0 63 c0 211 -171 426 -385
483 -65 18 -195 17 -265 -2z"/>
<path d="M1920 330 c-20 -6 -16 -8 23 -9 30 -1 46 3 42 9 -7 11 -29 11 -65 0z"/>
<path d="M1817 313 c-29 -5 -30 -7 -6 -70 11 -30 17 -29 29 2 17 44 22 75 14
74 -5 -1 -22 -4 -37 -6z"/>
<path d="M2895 299 c-58 -31 -82 -56 -115 -123 -34 -68 -42 -146 -14 -146 11
0 14 5 10 17 -12 30 14 122 47 165 18 23 52 52 77 65 38 21 56 24 117 21 60
-3 78 -8 114 -33 56 -40 98 -116 101 -183 2 -37 6 -52 17 -52 20 0 9 105 -17
156 -23 45 -90 110 -128 124 -48 18 -166 12 -209 -11z"/>
</g>
</svg>
